# xmcd CD database file
#
# Track frame offsets:
#	150
#	39704
#	70909
#	100009
#	139277
#	161703
#	214220
#
# Disc length: 3248 seconds
#
# Revision: 0
# Processed by: cddbd v1.5.2PL0 Copyright (c) Steve Scherf et al.
# Submitted via: CDex 1.60beta1-cs1
#
DISCID=660cae07
DTITLE=Noriko Satomi - Hot Summer Night
DYEAR=1900
DGENRE=Jazz
TTITLE0=Afternoon in Paris
TTITLE1=Summertime
TTITLE2=Pavane Pour Une Infante Defunte
TTITLE3=Summer Night
TTITLE4=I mean You
TTITLE5=La Fiesta
TTITLE6=I Love you Porgy
EXTD=
EXTT0=
EXTT1=
EXTT2=
EXTT3=
EXTT4=
EXTT5=
EXTT6=
PLAYORDER=
